Coordinates
version=1
nRows=27
nColumns=12
inDegrees=yes

Units are S.I. units (second, meters, Newtons, ...)
Angles are in degrees

endheader
time	SC_y	SC_z	SC_x	AC_y	AC_z	AC_x	GH_y	GH_z	GH_yy	EL_x	PS_y
       0.0              -53.57          18.02          17.25          45.04          1.439         -2.243         -45.55         -2.424          111.7          51.73          115.6
   0.02725              -53.57          18.02          17.26          45.04          1.438         -2.243         -45.55         -2.423          111.7          51.72          115.6
    0.0545              -53.57          18.02          17.26          45.04          1.438         -2.243         -45.55         -2.421          111.7          51.71          115.6
   0.08174              -53.57          18.01          17.27          45.04          1.437         -2.243         -45.54         -2.419          111.7          51.71          115.6
     0.109              -53.57          18.01          17.27          45.04          1.436         -2.243         -45.54         -2.418          111.7           51.7          115.6
    0.1362              -53.57          18.01          17.28          45.04          1.435         -2.243         -45.54         -2.416          111.7          51.69          115.6
    0.1635              -53.57           18.0          17.29          45.04          1.434         -2.243         -45.54         -2.414          111.7          51.69          115.6
    0.1907              -53.56           18.0          17.29          45.04          1.433         -2.243         -45.53         -2.412          111.7          51.68          115.6
     0.218              -53.56           18.0           17.3          45.04          1.432         -2.243         -45.53          -2.41          111.7          51.67          115.6
    0.2452              -53.56          17.99          17.31          45.04          1.431         -2.243         -45.53         -2.407          111.7          51.66          115.6
    0.2725              -53.56          17.99          17.32          45.04          1.429         -2.243         -45.52         -2.405          111.7          51.65          115.6
    0.2997              -53.56          17.98          17.33          45.04          1.428         -2.243         -45.52         -2.402          111.7          51.64          115.6
     0.327              -53.55          17.98          17.33          45.03          1.426         -2.243         -45.51         -2.399          111.7          51.63          115.6
    0.3542              -53.55          17.97          17.35          45.03          1.425         -2.243         -45.51         -2.396          111.7          51.62          115.6
    0.3815              -53.55          17.97          17.36          45.03          1.423         -2.242          -45.5         -2.392          111.7           51.6          115.7
    0.4087              -53.55          17.96          17.37          45.03          1.421         -2.242          -45.5         -2.389          111.7          51.59          115.7
     0.436              -53.54          17.95          17.38          45.03          1.419         -2.242         -45.49         -2.385          111.7          51.57          115.7
    0.4632              -53.54          17.95           17.4          45.03          1.417         -2.242         -45.49          -2.38          111.7          51.56          115.7
    0.4905              -53.54          17.94          17.41          45.03          1.414         -2.242         -45.48         -2.375          111.7          51.54          115.7
    0.5177              -53.53          17.93          17.43          45.02          1.412         -2.242         -45.47          -2.37          111.7          51.52          115.7
     0.545              -53.53          17.92          17.45          45.02          1.409         -2.242         -45.46         -2.364          111.7           51.5          115.7
    0.5722              -53.52          17.91          17.47          45.02          1.405         -2.242         -45.45         -2.358          111.7          51.47          115.7
    0.5995              -53.52          17.89          17.49          45.02          1.402         -2.241         -45.44         -2.351          111.7          51.44          115.8
    0.6267              -53.51          17.88          17.52          45.01          1.398         -2.241         -45.43         -2.343          111.7          51.41          115.8
     0.654               -53.5          17.87          17.55          45.01          1.393         -2.241         -45.42         -2.334          111.7          51.38          115.8
    0.6812               -53.5          17.85          17.58          45.01          1.388         -2.241          -45.4         -2.325          111.7          51.34          115.8
    0.7084              -53.49          17.83          17.62           45.0          1.383          -2.24         -45.39         -2.314          111.7           51.3          115.9
